<svg xmlns="http://www.w3.org/2000/svg" xmlns:xlink="http://www.w3.org/1999/xlink" contentStyleType="text/css" data-diagram-type="CLASS" height="532px" preserveAspectRatio="none" style="width:688px;height:532px;background:#FFFFFF;" version="1.1" viewBox="0 0 688 532" width="688px" zoomAndPan="magnify"><defs/><g><!--class Main--><g class="entity" data-entity="Main" data-source-line="1" data-uid="ent0002" id="entity_Main"><rect fill="#F1F1F1" height="96.8906" rx="2.5" ry="2.5" style="stroke:#181818;stroke-width:0.5;" width="202.8936" x="279.42" y="7"/><ellipse cx="359.9063" cy="23" fill="#ADD1B2" rx="11" ry="11" style="stroke:#181818;stroke-width:1;"/><path d="M362.8751,28.6406 Q362.297,28.9375 361.6563,29.0781 Q361.0157,29.2344 360.3126,29.2344 Q357.8126,29.2344 356.4845,27.5938 Q355.172,25.9375 355.172,22.8125 Q355.172,19.6875 356.4845,18.0313 Q357.8126,16.375 360.3126,16.375 Q361.0157,16.375 361.6563,16.5313 Q362.3126,16.6875 362.8751,16.9844 L362.8751,19.7031 Q362.2501,19.125 361.6563,18.8594 Q361.0626,18.5781 360.4376,18.5781 Q359.0938,18.5781 358.4063,19.6563 Q357.7188,20.7188 357.7188,22.8125 Q357.7188,24.9063 358.4063,25.9844 Q359.0938,27.0469 360.4376,27.0469 Q361.0626,27.0469 361.6563,26.7813 Q362.2501,26.5 362.8751,25.9219 L362.8751,28.6406 Z " fill="#000000"/><text fill="#000000" font-family="sans-serif" font-size="14" lengthAdjust="spacing" textLength="33.4209" x="380.4063" y="27.8467">Main</text><line style="stroke:#181818;stroke-width:0.5;" x1="280.42" x2="481.3136" y1="39" y2="39"/><ellipse cx="290.42" cy="52.6484" fill="none" rx="3" ry="3" style="stroke:#038048;stroke-width:1;"/><text fill="#000000" font-family="sans-serif" font-size="14" lengthAdjust="spacing" textLength="117.5713" x="299.42" y="55.9951">String: in_file_str</text><ellipse cx="290.42" cy="68.9453" fill="none" rx="3" ry="3" style="stroke:#038048;stroke-width:1;"/><text fill="#000000" font-family="sans-serif" font-size="14" lengthAdjust="spacing" textLength="127.7363" x="299.42" y="72.292">String: out_file_str</text><line style="stroke:#181818;stroke-width:0.5;" x1="280.42" x2="481.3136" y1="79.5938" y2="79.5938"/><ellipse cx="290.42" cy="93.2422" fill="#84BE84" rx="3" ry="3" style="stroke:#038048;stroke-width:1;"/><text fill="#000000" font-family="sans-serif" font-size="14" lengthAdjust="spacing" textLength="176.8936" x="299.42" y="96.5889">argChecks(args[]: String)</text></g><!--class Recorder--><g class="entity" data-entity="Recorder" data-source-line="8" data-uid="ent0003" id="entity_Recorder"><rect fill="#F1F1F1" height="64.2969" rx="2.5" ry="2.5" style="stroke:#181818;stroke-width:0.5;" width="100.3682" x="330.68" y="163.89"/><ellipse cx="347.8188" cy="179.89" fill="#ADD1B2" rx="11" ry="11" style="stroke:#181818;stroke-width:1;"/><path d="M350.7876,185.5306 Q350.2094,185.8275 349.5688,185.9681 Q348.9282,186.1244 348.2251,186.1244 Q345.7251,186.1244 344.3969,184.4838 Q343.0844,182.8275 343.0844,179.7025 Q343.0844,176.5775 344.3969,174.9213 Q345.7251,173.265 348.2251,173.265 Q348.9282,173.265 349.5688,173.4213 Q350.2251,173.5775 350.7876,173.8744 L350.7876,176.5931 Q350.1626,176.015 349.5688,175.7494 Q348.9751,175.4681 348.3501,175.4681 Q347.0063,175.4681 346.3188,176.5463 Q345.6313,177.6088 345.6313,179.7025 Q345.6313,181.7963 346.3188,182.8744 Q347.0063,183.9369 348.3501,183.9369 Q348.9751,183.9369 349.5688,183.6713 Q350.1626,183.39 350.7876,182.8119 L350.7876,185.5306 Z " fill="#000000"/><text fill="#000000" font-family="sans-serif" font-size="14" lengthAdjust="spacing" textLength="63.6152" x="362.2941" y="184.7367">Recorder</text><line style="stroke:#181818;stroke-width:0.5;" x1="331.68" x2="430.0482" y1="195.89" y2="195.89"/><text fill="#000000" font-family="sans-serif" font-size="14" lengthAdjust="spacing" textLength="88.3682" x="336.68" y="212.8851">outpath: File</text><line style="stroke:#181818;stroke-width:0.5;" x1="331.68" x2="430.0482" y1="220.1869" y2="220.1869"/></g><!--class Replayer--><g class="entity" data-entity="Replayer" data-source-line="13" data-uid="ent0004" id="entity_Replayer"><rect fill="#F1F1F1" height="64.2969" rx="2.5" ry="2.5" style="stroke:#181818;stroke-width:0.5;" width="94.3506" x="201.69" y="163.89"/><ellipse cx="216.69" cy="179.89" fill="#ADD1B2" rx="11" ry="11" style="stroke:#181818;stroke-width:1;"/><path d="M219.6588,185.5306 Q219.0806,185.8275 218.44,185.9681 Q217.7994,186.1244 217.0963,186.1244 Q214.5963,186.1244 213.2681,184.4838 Q211.9556,182.8275 211.9556,179.7025 Q211.9556,176.5775 213.2681,174.9213 Q214.5963,173.265 217.0963,173.265 Q217.7994,173.265 218.44,173.4213 Q219.0963,173.5775 219.6588,173.8744 L219.6588,176.5931 Q219.0338,176.015 218.44,175.7494 Q217.8463,175.4681 217.2213,175.4681 Q215.8775,175.4681 215.19,176.5463 Q214.5025,177.6088 214.5025,179.7025 Q214.5025,181.7963 215.19,182.8744 Q215.8775,183.9369 217.2213,183.9369 Q217.8463,183.9369 218.44,183.6713 Q219.0338,183.39 219.6588,182.8119 L219.6588,185.5306 Z " fill="#000000"/><text fill="#000000" font-family="sans-serif" font-size="14" lengthAdjust="spacing" textLength="62.3506" x="230.69" y="184.7367">Replayer</text><line style="stroke:#181818;stroke-width:0.5;" x1="202.69" x2="295.0406" y1="195.89" y2="195.89"/><text fill="#000000" font-family="sans-serif" font-size="14" lengthAdjust="spacing" textLength="78.2031" x="207.69" y="212.8851">inpath: File</text><line style="stroke:#181818;stroke-width:0.5;" x1="202.69" x2="295.0406" y1="220.1869" y2="220.1869"/></g><!--class Robot--><g class="entity" data-entity="Robot" data-source-line="14" data-uid="ent0005" id="entity_Robot"><rect fill="#F1F1F1" height="48" rx="2.5" ry="2.5" style="stroke:#181818;stroke-width:0.5;" width="73.2344" x="171.25" y="31.44"/><ellipse cx="186.25" cy="47.44" fill="#B4A7E5" rx="11" ry="11" style="stroke:#181818;stroke-width:1;"/><path d="M182.1719,43.2056 L182.1719,41.0494 L189.5625,41.0494 L189.5625,43.2056 L187.0938,43.2056 L187.0938,51.2837 L189.5625,51.2837 L189.5625,53.44 L182.1719,53.44 L182.1719,51.2837 L184.6406,51.2837 L184.6406,43.2056 L182.1719,43.2056 Z " fill="#000000"/><text fill="#000000" font-family="sans-serif" font-size="14" font-style="italic" lengthAdjust="spacing" textLength="41.2344" x="200.25" y="52.2867">Robot</text><line style="stroke:#181818;stroke-width:0.5;" x1="172.25" x2="243.4844" y1="63.44" y2="63.44"/><line style="stroke:#181818;stroke-width:0.5;" x1="172.25" x2="243.4844" y1="71.44" y2="71.44"/></g><!--class KeyboardEventRecorder--><g class="entity" data-entity="KeyboardEventRecorder" data-source-line="17" data-uid="ent0007" id="entity_KeyboardEventRecorder"><rect fill="#F1F1F1" height="64.2969" rx="2.5" ry="2.5" style="stroke:#181818;stroke-width:0.5;" width="259.6455" x="44.05" y="288.19"/><ellipse cx="84.7769" cy="304.19" fill="#ADD1B2" rx="11" ry="11" style="stroke:#181818;stroke-width:1;"/><path d="M87.7457,309.8306 Q87.1675,310.1275 86.5269,310.2681 Q85.8863,310.4244 85.1832,310.4244 Q82.6832,310.4244 81.355,308.7837 Q80.0425,307.1275 80.0425,304.0025 Q80.0425,300.8775 81.355,299.2212 Q82.6832,297.565 85.1832,297.565 Q85.8863,297.565 86.5269,297.7212 Q87.1832,297.8775 87.7457,298.1744 L87.7457,300.8931 Q87.1207,300.315 86.5269,300.0494 Q85.9332,299.7681 85.3082,299.7681 Q83.9644,299.7681 83.2769,300.8462 Q82.5894,301.9087 82.5894,304.0025 Q82.5894,306.0962 83.2769,307.1744 Q83.9644,308.2369 85.3082,308.2369 Q85.9332,308.2369 86.5269,307.9712 Q87.1207,307.69 87.7457,307.1119 L87.7457,309.8306 Z " fill="#000000"/><text fill="#000000" font-family="sans-serif" font-size="14" lengthAdjust="spacing" textLength="170.4746" x="104.494" y="309.0367">KeyboardEventRecorder</text><line style="stroke:#181818;stroke-width:0.5;" x1="45.05" x2="302.6955" y1="320.19" y2="320.19"/><rect fill="none" height="6" style="stroke:#C82930;stroke-width:1;" width="6" x="52.05" y="330.8384"/><text fill="#000000" font-family="sans-serif" font-size="14" lengthAdjust="spacing" textLength="233.6455" x="64.05" y="337.1851">ArrayList&lt;KeyEvent&gt;: keyEvents</text><line style="stroke:#181818;stroke-width:0.5;" x1="45.05" x2="302.6955" y1="344.4869" y2="344.4869"/></g><!--class NativeKeyListener--><g class="entity" data-entity="NativeKeyListener" data-source-line="19" data-uid="ent0008" id="entity_NativeKeyListener"><rect fill="#F1F1F1" height="48" rx="2.5" ry="2.5" style="stroke:#181818;stroke-width:0.5;" width="159.7363" x="7" y="172.04"/><ellipse cx="22" cy="188.04" fill="#B4A7E5" rx="11" ry="11" style="stroke:#181818;stroke-width:1;"/><path d="M17.9219,183.8056 L17.9219,181.6494 L25.3125,181.6494 L25.3125,183.8056 L22.8438,183.8056 L22.8438,191.8837 L25.3125,191.8837 L25.3125,194.04 L17.9219,194.04 L17.9219,191.8837 L20.3906,191.8837 L20.3906,183.8056 L17.9219,183.8056 Z " fill="#000000"/><text fill="#000000" font-family="sans-serif" font-size="14" font-style="italic" lengthAdjust="spacing" textLength="127.7363" x="36" y="192.8867">NativeKeyListener</text><line style="stroke:#181818;stroke-width:0.5;" x1="8" x2="165.7363" y1="204.04" y2="204.04"/><line style="stroke:#181818;stroke-width:0.5;" x1="8" x2="165.7363" y1="212.04" y2="212.04"/></g><!--class MouseEventRecorder--><g class="entity" data-entity="MouseEventRecorder" data-source-line="22" data-uid="ent0010" id="entity_MouseEventRecorder"><rect fill="#F1F1F1" height="64.2969" rx="2.5" ry="2.5" style="stroke:#181818;stroke-width:0.5;" width="293.6748" x="383.03" y="288.19"/><ellipse cx="451.0442" cy="304.19" fill="#ADD1B2" rx="11" ry="11" style="stroke:#181818;stroke-width:1;"/><path d="M454.0129,309.8306 Q453.4348,310.1275 452.7942,310.2681 Q452.1535,310.4244 451.4504,310.4244 Q448.9504,310.4244 447.6223,308.7837 Q446.3098,307.1275 446.3098,304.0025 Q446.3098,300.8775 447.6223,299.2212 Q448.9504,297.565 451.4504,297.565 Q452.1535,297.565 452.7942,297.7212 Q453.4504,297.8775 454.0129,298.1744 L454.0129,300.8931 Q453.3879,300.315 452.7942,300.0494 Q452.2004,299.7681 451.5754,299.7681 Q450.2317,299.7681 449.5442,300.8462 Q448.8567,301.9087 448.8567,304.0025 Q448.8567,306.0962 449.5442,307.1744 Q450.2317,308.2369 451.5754,308.2369 Q452.2004,308.2369 452.7942,307.9712 Q453.3879,307.69 454.0129,307.1119 L454.0129,309.8306 Z " fill="#000000"/><text fill="#000000" font-family="sans-serif" font-size="14" lengthAdjust="spacing" textLength="149.1465" x="471.5442" y="309.0367">MouseEventRecorder</text><line style="stroke:#181818;stroke-width:0.5;" x1="384.03" x2="675.7048" y1="320.19" y2="320.19"/><rect fill="none" height="6" style="stroke:#C82930;stroke-width:1;" width="6" x="391.03" y="330.8384"/><text fill="#000000" font-family="sans-serif" font-size="14" lengthAdjust="spacing" textLength="267.6748" x="403.03" y="337.1851">ArrayList&lt;MouseEvent&gt;: mouseEvent</text><line style="stroke:#181818;stroke-width:0.5;" x1="384.03" x2="675.7048" y1="344.4869" y2="344.4869"/></g><!--class NativeMouseInputListener--><g class="entity" data-entity="NativeMouseInputListener" data-source-line="24" data-uid="ent0011" id="entity_NativeMouseInputListener"><rect fill="#F1F1F1" height="48" rx="2.5" ry="2.5" style="stroke:#181818;stroke-width:0.5;" width="215.333" x="466.2" y="172.04"/><ellipse cx="481.2" cy="188.04" fill="#B4A7E5" rx="11" ry="11" style="stroke:#181818;stroke-width:1;"/><path d="M477.1219,183.8056 L477.1219,181.6494 L484.5125,181.6494 L484.5125,183.8056 L482.0438,183.8056 L482.0438,191.8837 L484.5125,191.8837 L484.5125,194.04 L477.1219,194.04 L477.1219,191.8837 L479.5906,191.8837 L479.5906,183.8056 L477.1219,183.8056 Z " fill="#000000"/><text fill="#000000" font-family="sans-serif" font-size="14" font-style="italic" lengthAdjust="spacing" textLength="183.333" x="495.2" y="192.8867">NativeMouseInputListener</text><line style="stroke:#181818;stroke-width:0.5;" x1="467.2" x2="680.533" y1="204.04" y2="204.04"/><line style="stroke:#181818;stroke-width:0.5;" x1="467.2" x2="680.533" y1="212.04" y2="212.04"/></g><!--class KeyEvent--><g class="entity" data-entity="KeyEvent" data-source-line="27" data-uid="ent0013" id="entity_KeyEvent"><rect fill="#F1F1F1" height="113.1875" rx="2.5" ry="2.5" style="stroke:#181818;stroke-width:0.5;" width="220.7012" x="63.52" y="412.48"/><ellipse cx="136.5278" cy="428.48" fill="#ADD1B2" rx="11" ry="11" style="stroke:#181818;stroke-width:1;"/><path d="M139.4966,434.1206 Q138.9184,434.4175 138.2778,434.5581 Q137.6372,434.7144 136.9341,434.7144 Q134.4341,434.7144 133.1059,433.0737 Q131.7934,431.4175 131.7934,428.2925 Q131.7934,425.1675 133.1059,423.5112 Q134.4341,421.855 136.9341,421.855 Q137.6372,421.855 138.2778,422.0112 Q138.9341,422.1675 139.4966,422.4644 L139.4966,425.1831 Q138.8716,424.605 138.2778,424.3394 Q137.6841,424.0581 137.0591,424.0581 Q135.7153,424.0581 135.0278,425.1362 Q134.3403,426.1987 134.3403,428.2925 Q134.3403,430.3862 135.0278,431.4644 Q135.7153,432.5269 137.0591,432.5269 Q137.6841,432.5269 138.2778,432.2612 Q138.8716,431.98 139.4966,431.4019 L139.4966,434.1206 Z " fill="#000000"/><text fill="#000000" font-family="sans-serif" font-size="14" lengthAdjust="spacing" textLength="66.1855" x="157.0278" y="433.3267">KeyEvent</text><line style="stroke:#181818;stroke-width:0.5;" x1="64.52" x2="283.2212" y1="444.48" y2="444.48"/><rect fill="none" height="6" style="stroke:#C82930;stroke-width:1;" width="6" x="71.52" y="455.1284"/><text fill="#000000" font-family="sans-serif" font-size="14" lengthAdjust="spacing" textLength="74.8398" x="83.52" y="461.4751">delta: long</text><rect fill="none" height="6" style="stroke:#C82930;stroke-width:1;" width="6" x="71.52" y="471.4253"/><text fill="#000000" font-family="sans-serif" font-size="14" lengthAdjust="spacing" textLength="160.5557" x="83.52" y="477.772">event: NativeKeyEvent</text><line style="stroke:#181818;stroke-width:0.5;" x1="64.52" x2="283.2212" y1="485.0737" y2="485.0737"/><ellipse cx="74.52" cy="498.7222" fill="#84BE84" rx="3" ry="3" style="stroke:#038048;stroke-width:1;"/><text fill="#000000" font-family="sans-serif" font-size="14" lengthAdjust="spacing" textLength="110.6465" x="83.52" y="502.0689">getDelta(): long</text><ellipse cx="74.52" cy="515.0191" fill="#84BE84" rx="3" ry="3" style="stroke:#038048;stroke-width:1;"/><text fill="#000000" font-family="sans-serif" font-size="14" lengthAdjust="spacing" textLength="194.7012" x="83.52" y="518.3657">getEvent(): NativeKeyEvent</text></g><!--class MouseEvent--><g class="entity" data-entity="MouseEvent" data-source-line="34" data-uid="ent0014" id="entity_MouseEvent"><rect fill="#F1F1F1" height="113.1875" rx="2.5" ry="2.5" style="stroke:#181818;stroke-width:0.5;" width="240.0469" x="409.84" y="412.48"/><ellipse cx="482.8478" cy="428.48" fill="#ADD1B2" rx="11" ry="11" style="stroke:#181818;stroke-width:1;"/><path d="M485.8166,434.1206 Q485.2384,434.4175 484.5978,434.5581 Q483.9572,434.7144 483.2541,434.7144 Q480.7541,434.7144 479.4259,433.0737 Q478.1134,431.4175 478.1134,428.2925 Q478.1134,425.1675 479.4259,423.5112 Q480.7541,421.855 483.2541,421.855 Q483.9572,421.855 484.5978,422.0112 Q485.2541,422.1675 485.8166,422.4644 L485.8166,425.1831 Q485.1916,424.605 484.5978,424.3394 Q484.0041,424.0581 483.3791,424.0581 Q482.0353,424.0581 481.3478,425.1362 Q480.6603,426.1987 480.6603,428.2925 Q480.6603,430.3862 481.3478,431.4644 Q482.0353,432.5269 483.3791,432.5269 Q484.0041,432.5269 484.5978,432.2612 Q485.1916,431.98 485.8166,431.4019 L485.8166,434.1206 Z " fill="#000000"/><text fill="#000000" font-family="sans-serif" font-size="14" lengthAdjust="spacing" textLength="85.5313" x="503.3478" y="433.3267">MouseEvent</text><line style="stroke:#181818;stroke-width:0.5;" x1="410.84" x2="648.8869" y1="444.48" y2="444.48"/><rect fill="none" height="6" style="stroke:#C82930;stroke-width:1;" width="6" x="417.84" y="455.1284"/><text fill="#000000" font-family="sans-serif" font-size="14" lengthAdjust="spacing" textLength="74.8398" x="429.84" y="461.4751">delta: long</text><rect fill="none" height="6" style="stroke:#C82930;stroke-width:1;" width="6" x="417.84" y="471.4253"/><text fill="#000000" font-family="sans-serif" font-size="14" lengthAdjust="spacing" textLength="179.9014" x="429.84" y="477.772">event: NativeMouseEvent</text><line style="stroke:#181818;stroke-width:0.5;" x1="410.84" x2="648.8869" y1="485.0737" y2="485.0737"/><ellipse cx="420.84" cy="498.7222" fill="#84BE84" rx="3" ry="3" style="stroke:#038048;stroke-width:1;"/><text fill="#000000" font-family="sans-serif" font-size="14" lengthAdjust="spacing" textLength="110.6465" x="429.84" y="502.0689">getDelta(): long</text><ellipse cx="420.84" cy="515.0191" fill="#84BE84" rx="3" ry="3" style="stroke:#038048;stroke-width:1;"/><text fill="#000000" font-family="sans-serif" font-size="14" lengthAdjust="spacing" textLength="214.0469" x="429.84" y="518.3657">getEvent(): NativeMouseEvent</text></g><!--reverse link Robot to Replayer--><g class="link" data-entity-1="Robot" data-entity-2="Replayer" data-source-line="14" data-uid="lnk6" id="link_Robot_Replayer"><path d="M219.8346,96.901 C226.6246,119.861 231.97,137.93 239.52,163.45" fill="none" id="Robot-backto-Replayer" style="stroke:#181818;stroke-width:1;stroke-dasharray:7,7;"/><polygon fill="none" points="214.73,79.64,214.081,98.6026,225.5883,95.1995,214.73,79.64" style="stroke:#181818;stroke-width:1;"/></g><!--reverse link NativeKeyListener to KeyboardEventRecorder--><g class="link" data-entity-1="NativeKeyListener" data-entity-2="KeyboardEventRecorder" data-source-line="19" data-uid="lnk9" id="link_NativeKeyListener_KeyboardEventRecorder"><path d="M113.8696,235.0005 C127.4696,254.1305 136.45,266.73 151.44,287.81" fill="none" id="NativeKeyListener-backto-KeyboardEventRecorder" style="stroke:#181818;stroke-width:1;stroke-dasharray:7,7;"/><polygon fill="none" points="103.44,220.33,108.9795,238.477,118.7598,231.5239,103.44,220.33" style="stroke:#181818;stroke-width:1;"/></g><!--reverse link NativeMouseInputListener to MouseEventRecorder--><g class="link" data-entity-1="NativeMouseInputListener" data-entity-2="MouseEventRecorder" data-source-line="24" data-uid="lnk12" id="link_NativeMouseInputListener_MouseEventRecorder"><path d="M559.3984,237.2679 C552.5184,256.3979 548.79,266.73 541.21,287.81" fill="none" id="NativeMouseInputListener-backto-MouseEventRecorder" style="stroke:#181818;stroke-width:1;stroke-dasharray:7,7;"/><polygon fill="none" points="565.49,220.33,553.7524,235.2374,565.0443,239.2984,565.49,220.33" style="stroke:#181818;stroke-width:1;"/></g><!--link Main to Recorder--><g class="link" data-entity-1="Main" data-entity-2="Recorder" data-source-line="41" data-uid="lnk15" id="link_Main_Recorder"><path codeLine="41" d="M380.87,104.14 C380.87,123.87 380.87,140.2 380.87,157.79" fill="none" id="Main-to-Recorder" style="stroke:#181818;stroke-width:1;"/><polygon fill="#181818" points="380.87,163.79,384.87,154.79,380.87,158.79,376.87,154.79,380.87,163.79" style="stroke:#181818;stroke-width:1;"/></g><!--link Recorder to MouseEventRecorder--><g class="link" data-entity-1="Recorder" data-entity-2="MouseEventRecorder" data-source-line="42" data-uid="lnk16" id="link_Recorder_MouseEventRecorder"><path codeLine="42" d="M419.24,228.53 C441.4,246.72 464.5517,265.724 486.7317,283.924" fill="none" id="Recorder-to-MouseEventRecorder" style="stroke:#181818;stroke-width:1;"/><polygon fill="#181818" points="491.37,287.73,486.9498,278.9287,487.5047,284.5583,481.8751,285.1132,491.37,287.73" style="stroke:#181818;stroke-width:1;"/></g><!--link Recorder to KeyboardEventRecorder--><g class="link" data-entity-1="Recorder" data-entity-2="KeyboardEventRecorder" data-source-line="43" data-uid="lnk17" id="link_Recorder_KeyboardEventRecorder"><path codeLine="43" d="M330.23,226.95 C298.99,245.41 264.1362,266.0088 232.4062,284.7488" fill="none" id="Recorder-to-KeyboardEventRecorder" style="stroke:#181818;stroke-width:1;"/><polygon fill="#181818" points="227.24,287.8,237.0235,286.6673,231.5452,285.2573,232.9552,279.779,227.24,287.8" style="stroke:#181818;stroke-width:1;"/></g><!--link MouseEventRecorder to MouseEvent--><g class="link" data-entity-1="MouseEventRecorder" data-entity-2="MouseEvent" data-source-line="44" data-uid="lnk18" id="link_MouseEventRecorder_MouseEvent"><path codeLine="44" d="M529.87,352.81 C529.87,370.08 529.87,386 529.87,406.07" fill="none" id="MouseEventRecorder-to-MouseEvent" style="stroke:#181818;stroke-width:1;"/><polygon fill="#181818" points="529.87,412.07,533.87,403.07,529.87,407.07,525.87,403.07,529.87,412.07" style="stroke:#181818;stroke-width:1;"/></g><!--link KeyboardEventRecorder to KeyEvent--><g class="link" data-entity-1="KeyboardEventRecorder" data-entity-2="KeyEvent" data-source-line="45" data-uid="lnk19" id="link_KeyboardEventRecorder_KeyEvent"><path codeLine="45" d="M173.87,352.81 C173.87,370.08 173.87,386 173.87,406.07" fill="none" id="KeyboardEventRecorder-to-KeyEvent" style="stroke:#181818;stroke-width:1;"/><polygon fill="#181818" points="173.87,412.07,177.87,403.07,173.87,407.07,169.87,403.07,173.87,412.07" style="stroke:#181818;stroke-width:1;"/></g><!--link Main to Replayer--><g class="link" data-entity-1="Main" data-entity-2="Replayer" data-source-line="46" data-uid="lnk20" id="link_Main_Replayer"><path codeLine="46" d="M335.44,104.14 C316.65,123.87 299.5176,141.8549 282.7676,159.4449" fill="none" id="Main-to-Replayer" style="stroke:#181818;stroke-width:1;"/><polygon fill="#181818" points="278.63,163.79,287.7332,160.0307,282.078,160.1691,281.9397,154.5139,278.63,163.79" style="stroke:#181818;stroke-width:1;"/></g><!--SRC=[bLHBZzCm4BxdLyoDNQ7o0oAq2F6G49G3715QJPFPngfZHnwdgu3uxup7UJJTI2mzjVFw7ZDkPP4PzcWS_2v0FYyWueaO953vjaLNWpME0CEH8NeW4niAm153X42L3xLnHuXD8AmP_9IIAWZ-u5DH5tpTLnGKu2LyZq5QIe6uVp2MxZbUPtmVhrE2_wwXwiGtYScFd-LOV5lyAOfALNnJDa9kLj8OXfnZqtPsoDmOaYeUNDK4xymlKPlOdcWuU0orPblVCm6ToKqgAR2E5MuTngQ4ZqBm4hopE0Xu0g9M-YIc-ZCRuxQwFe-O7nBGpFzYn5UCvanIziLm97SjBjiEZyRQaUOYGn3xcANYcLHY3iaMqOcX0GShKy4_f2RL-WfQ7A3p0XKDMd7C4OaRlOqcOwLbJ_QfUqBGEvrfhN_CfK8_ZOGk43FftHneyb4CpkV1s0ejqz8RbRI3jubI4lfQ1AibTsMQerzvSMsVblCFoxJcKzBxREVophD7SY_6OX03XFlgEgPhUC9vOIMis_d7QjaQ6Odie2ORiGJhtN6Cw1BAPUjvGdu1HuhlKyFDxKMBXhKgXQ_wDWnxBlRIyR_e-vLo_MVPxUxcnrdCAqlHfvjSvpVVHx6n__MmOljTZHDpoGMp_7B_0W00]--></g></svg>